<?xml version="1.0" encoding="UTF-8" standalone="no"?>
<!-- Created with Inkscape (http://www.inkscape.org/) -->

<svg

   viewBox="0 0 155 37.12"
   version="1.1"
   id="svg1"
   xmlns="http://www.w3.org/2000/svg"
   xmlns:svg="http://www.w3.org/2000/svg">
  <g
     id="layer1">
    <text
       xml:space="preserve"
       transform="scale(0.26458333)"
       id="text1"
       style="white-space:pre;shape-inside:url(#rect1);display:inline;fill:#000000;stroke:#000000;stroke-width:0.5" />
    <path
       style="font-size:50.8px;font-family:'.SF NS Rounded';-inkscape-font-specification:'.SF NS Rounded';fill-opacity:0.5;stroke:#000000;stroke-width:0"
       d="m 16.189193,37.049933 q 3.274218,0 5.903515,-0.868164 2.629297,-0.868164 4.564063,-2.530078 1.934765,-1.661914 3.100586,-4.01836 0.595312,-1.190625 0.595312,-2.232421 0,-0.868164 -0.570508,-1.438672 -0.570508,-0.570508 -1.463476,-0.570508 -0.744141,0 -1.240235,0.37207 -0.496093,0.372071 -0.843359,1.190625 -0.843359,2.00918 -2.306836,3.348633 -1.463477,1.314648 -3.423047,1.984375 -1.95957,0.644922 -4.291211,0.644922 -3.522265,0 -6.126757,-1.761133 -2.6044925,-1.785937 -4.0183597,-5.010547 -1.4138672,-3.224609 -1.4138672,-7.615039 0,-4.365625 1.4138672,-7.590234 1.4386718,-3.2246093 4.0183597,-4.9857421 2.604492,-1.7859375 6.101953,-1.7859375 2.207617,0 4.142382,0.7441406 1.959571,0.7441406 3.447852,2.2076172 1.513086,1.4386718 2.356445,3.5470698 0.37207,0.942579 0.942578,1.413868 0.595313,0.446484 1.413867,0.446484 0.917774,0 1.463477,-0.545703 0.545703,-0.570508 0.545703,-1.488281 0,-0.8433597 -0.37207,-1.7611332 Q 29.08763,6.0688786 27.028841,4.134113 24.994857,2.1745428 22.216732,1.1327459 19.463411,0.06614435 16.189193,0.06614435 q -4.886524,0 -8.5328127,2.28203125 Q 4.0348959,4.6302068 2.050521,8.7725895 0.06614601,12.914972 0.06614601,18.545636 q 0,5.680274 1.95957029,9.822656 1.984375,4.142383 5.6058593,6.424414 3.6214844,2.257227 8.5576174,2.257227 z m 26.962695,-0.148828 q 1.736328,0 3.348633,-0.595313 1.612304,-0.620117 2.902148,-1.711523 1.289844,-1.116211 2.058789,-2.579688 h 0.09922 q 0,0.669727 0,1.364258 0,0.669727 0,1.339453 0,0.967383 0.570508,1.5875 0.570508,0.595313 1.488281,0.595313 0.892969,0 1.463477,-0.595313 0.570507,-0.620117 0.570507,-1.5875 V 18.62005 q 0,-2.579687 -1.215429,-4.464843 -1.190625,-1.885157 -3.423047,-2.902149 -2.207617,-1.041797 -5.233789,-1.041797 -3.150195,0 -5.754688,1.289844 -2.579687,1.265039 -3.671093,3.398242 -0.520899,0.917774 -0.520899,1.785938 0,0.868164 0.520899,1.413867 0.545703,0.520898 1.389062,0.520898 1.21543,0 1.785938,-1.041797 1.091406,-1.90996 2.554883,-2.728515 1.488281,-0.843359 3.596679,-0.843359 2.678906,0 4.167188,1.339453 1.488281,1.339453 1.488281,3.695898 v 2.158008 l -7.416602,0.421679 q -4.464843,0.248047 -6.920507,2.232422 -2.43086,1.984375 -2.43086,5.308203 0,2.306836 1.066602,4.067969 1.091406,1.736328 3.026172,2.703711 1.934765,0.967383 4.489648,0.967383 z m 0.967383,-3.671094 q -2.331641,0 -3.745508,-1.116211 -1.413867,-1.116211 -1.413867,-2.951758 0,-1.835547 1.413867,-2.926953 1.438672,-1.091406 4.043164,-1.265039 l 6.920508,-0.421679 v 2.108398 q 0,1.860351 -0.967383,3.348633 -0.942578,1.488281 -2.579687,2.356445 -1.63711,0.868164 -3.671094,0.868164 z m 19.397265,3.671094 q 0.942578,0 1.53789,-0.644922 0.620118,-0.644922 0.620118,-1.661914 V 2.5218084 q 0,-1.0169922 -0.620118,-1.66191407 -0.595312,-0.64492186 -1.53789,-0.64492186 -0.942578,0 -1.562695,0.64492186 Q 61.358528,1.5048162 61.358528,2.5218084 V 34.594269 q 0,1.016992 0.595313,1.661914 0.620117,0.644922 1.562695,0.644922 z m 10.368358,0 q 0.942579,0 1.537891,-0.644922 0.620117,-0.644922 0.620117,-1.661914 V 2.5218084 q 0,-1.0169922 -0.620117,-1.66191407 -0.595312,-0.64492186 -1.537891,-0.64492186 -0.942578,0 -1.562695,0.64492186 Q 71.726887,1.5048162 71.726887,2.5218084 V 34.594269 q 0,1.016992 0.595312,1.661914 0.620117,0.644922 1.562695,0.644922 z m 20.563089,0 q 0.992188,0 1.562696,-0.644922 0.595312,-0.669727 0.595312,-1.661914 V 20.281964 q 0,-2.678906 1.661914,-4.464843 1.686719,-1.785938 4.241605,-1.785938 2.40605,0 3.84472,1.413867 1.43868,1.389063 1.43868,3.720703 v 15.428516 q 0,0.992187 0.5705,1.661914 0.59532,0.644922 1.5875,0.644922 0.99219,0 1.5627,-0.644922 0.59531,-0.669727 0.59531,-1.661914 V 20.058722 q 0,-2.629297 1.63711,-4.316015 1.63711,-1.711524 4.19199,-1.711524 2.55488,0 3.94395,1.488281 1.41386,1.463477 1.41386,4.117578 v 14.957227 q 0,0.992187 0.57051,1.661914 0.59531,0.644922 1.5875,0.644922 0.99219,0 1.5627,-0.644922 0.59531,-0.669727 0.59531,-1.661914 V 18.644855 q 0,-2.554883 -1.0418,-4.440039 -1.04179,-1.909961 -2.92695,-2.951758 -1.88516,-1.041797 -4.44004,-1.041797 -1.81074,0 -3.39824,0.595313 -1.5627,0.570508 -2.77813,1.686719 -1.19062,1.091406 -1.90996,2.629296 h -0.0992 q -0.5457,-1.562695 -1.5875,-2.654101 -1.04179,-1.091406 -2.48046,-1.661914 -1.41387,-0.595313 -3.175,-0.595313 -2.6045,0 -4.514457,1.265039 -1.885156,1.240235 -2.80293,3.299024 h -0.09922 v -2.38125 q 0,-0.967383 -0.570507,-1.562695 -0.570508,-0.620118 -1.463477,-0.620118 -0.892969,0 -1.463477,0.620118 -0.570507,0.595312 -0.570507,1.562695 v 22.200195 q 0,0.992187 0.570507,1.661914 0.595313,0.644922 1.5875,0.644922 z m 49.460537,0 q 3.54707,0 6.15156,-1.413867 2.6045,-1.438672 3.84473,-4.067969 0.32246,-0.768945 0.32246,-1.265039 0,-0.868164 -0.5209,-1.364258 -0.52089,-0.520898 -1.38906,-0.520898 -0.49609,0 -0.89297,0.198437 -0.37207,0.198438 -0.71933,0.669727 -1.51309,2.182812 -3.10059,3.100586 -1.56269,0.917773 -3.86953,0.917773 -3.44785,0 -5.45703,-2.257227 -2.00918,-2.282031 -2.00918,-6.176367 0,0 0,0 0,0 0,0 h 16.12305 q 1.11621,0 1.73632,-0.669726 0.64493,-0.669727 0.64493,-1.835547 0,-3.54707 -1.43868,-6.250781 -1.43867,-2.703711 -3.96875,-4.216797 -2.53007,-1.537891 -5.8291,-1.537891 -3.54707,0 -6.20117,1.661914 -2.6293,1.661914 -4.06797,4.688086 -1.43867,3.026172 -1.43867,7.094141 0,6.250781 3.175,9.748242 3.1998,3.497461 8.90488,3.497461 z m -7.61504,-15.552539 q 0.14883,-2.232422 1.09141,-3.894336 0.94258,-1.661914 2.50527,-2.579687 1.5627,-0.917774 3.57188,-0.917774 2.00918,0 3.52226,0.917774 1.51309,0.917773 2.38125,2.579687 0.89297,1.661914 0.94258,3.894336 z"
       id="text2"
       aria-label="Call me" />
  </g>
</svg>
