<?xml version="1.0" encoding="UTF-8" standalone="no"?>
<!-- Created with Inkscape (http://www.inkscape.org/) -->

<svg
  
   viewBox="0 0 210 200"
   version="1.1"
   id="svg5"
   inkscape:version="1.1.1 (c3084ef, 2021-09-22)"
   sodipodi:docname="acajou.studio.megazoid.svg"
   xmlns:inkscape="http://www.inkscape.org/namespaces/inkscape"
   xmlns:sodipodi="http://sodipodi.sourceforge.net/DTD/sodipodi-0.dtd"
   xmlns="http://www.w3.org/2000/svg"
   xmlns:svg="http://www.w3.org/2000/svg">


  <g
     inkscape:label="Layer 1"
     inkscape:groupmode="layer"
     id="layer1">
    <g
       aria-label="Acajou.Studio"
       id="text2338"
       style="font-size:10.5833px;line-height:1.25;stroke-width:0.264583">
      <path
         d="m 47.624786,39.441597 h 3.513655 l 0.560915,-2.08491 h 1.460495 v 2.08491 h 3.386656 v -8.46664 h -6.656895 z m 4.222736,-5.185817 c 0,-0.476248 0.391582,-0.857247 0.857247,-0.857247 0.465666,0 0.846664,0.380999 0.846664,0.857247 0,0.465665 -0.380998,0.846664 -0.846664,0.846664 -0.465665,0 -0.857247,-0.380999 -0.857247,-0.846664 z"
         style="font-family:Megazoid;-inkscape-font-specification:'Megazoid, Normal'"
         id="path4992" />
      <path
         d="m 60.368401,39.441597 h 3.280823 V 36.37244 h -2.27541 c -0.08467,0.349249 -0.412748,0.603248 -0.783164,0.603248 -0.444498,0 -0.804331,-0.359832 -0.804331,-0.814914 0,-0.444498 0.359833,-0.804331 0.804331,-0.804331 0.370416,0 0.687915,0.254 0.783164,0.592665 h 2.27541 v -3.069157 h -3.280823 c -1.947327,0 -3.503072,1.439329 -3.503072,3.291406 0,1.788578 1.555745,3.259657 3.503072,3.27024 z"
         style="font-family:Megazoid;-inkscape-font-specification:'Megazoid, Normal'"
         id="path4994" />
      <path
         d="m 68.410385,32.879951 h -2.031993 v 1.534579 h -2.328326 v 5.027067 h 6.953228 V 35.47286 c 0,-1.322913 -1.269996,-2.592909 -2.592909,-2.592909 z m -1.661578,3.852321 c 0,-0.433915 0.349249,-0.772581 0.772581,-0.772581 0.423332,0 0.761998,0.338666 0.761998,0.772581 0,0.423332 -0.338666,0.761998 -0.761998,0.761998 -0.423332,0 -0.772581,-0.338666 -0.772581,-0.761998 z"
         style="font-family:Megazoid;-inkscape-font-specification:'Megazoid, Normal'"
         id="path4996" />
      <path
         d="m 71.419845,41.346591 h 3.037407 V 34.41453 h -3.037407 z m -0.158749,-8.858222 c 0,0.920747 0.761998,1.672161 1.682745,1.672161 0.920747,0 1.672161,-0.751414 1.672161,-1.672161 0,-0.93133 -0.751414,-1.693328 -1.672161,-1.693328 -0.920747,0 -1.682745,0.761998 -1.682745,1.693328 z"
         style="font-family:Megazoid;-inkscape-font-specification:'Megazoid, Normal'"
         id="path4998" />
      <path
         d="m 78.321976,39.621513 c 1.947327,0 3.545405,-1.555745 3.545405,-3.460739 0,-1.915577 -1.587495,-3.450156 -3.545405,-3.450156 -1.968494,0 -3.555989,1.545162 -3.555989,3.450156 0,1.904994 1.587495,3.460739 3.555989,3.460739 z m -0.825497,-3.450156 c 0,-0.444498 0.370415,-0.814914 0.814914,-0.814914 0.444498,0 0.814914,0.370416 0.814914,0.814914 0,0.444499 -0.370416,0.814914 -0.814914,0.814914 -0.444499,0 -0.814914,-0.370415 -0.814914,-0.814914 z"
         style="font-family:Megazoid;-inkscape-font-specification:'Megazoid, Normal'"
         id="path5000" />
      <path
         d="m 89.269406,32.879951 h -2.931574 v 3.566572 c 0,0.349249 -0.264583,0.613832 -0.613832,0.613832 -0.349248,0 -0.603248,-0.264583 -0.603248,-0.613832 v -3.566572 h -2.931574 v 6.561646 h 7.080228 z"
         style="font-family:Megazoid;-inkscape-font-specification:'Megazoid, Normal'"
         id="path5002" />
      <path
         d="m 91.555234,39.54743 c 1.037164,0 1.894411,-0.846664 1.894411,-1.873244 0,-1.02658 -0.857247,-1.862661 -1.894411,-1.862661 -1.05833,0 -1.904994,0.836081 -1.904994,1.862661 0,1.02658 0.846664,1.873244 1.904994,1.873244 z"
         style="font-family:Megazoid;-inkscape-font-specification:'Megazoid, Normal'"
         id="path5004" />
      <path
         d="m 93.742009,39.441597 h 2.952741 c 1.820327,0 2.783407,-1.386412 2.285992,-3.280823 l -0.613831,-2.328326 h 1.534578 v -2.857491 h -2.815157 c -1.820328,0 -2.783408,1.418162 -2.264827,3.376073 l 0.592665,2.233076 h -1.672161 z"
         style="font-family:Megazoid;-inkscape-font-specification:'Megazoid, Normal'"
         id="path5006" />
      <path
         d="m 100.23453,39.441597 h 3.03741 v -3.979321 h 1.50283 v -2.582325 h -1.50283 v -1.89441 h -3.03741 z"
         style="font-family:Megazoid;-inkscape-font-specification:'Megazoid, Normal'"
         id="path5008" />
      <path
         d="m 112.193,32.879951 h -2.93157 v 3.566572 c 0,0.349249 -0.26459,0.613832 -0.61383,0.613832 -0.34925,0 -0.60325,-0.264583 -0.60325,-0.613832 v -3.566572 h -2.93158 v 6.561646 h 7.08023 z"
         style="font-family:Megazoid;-inkscape-font-specification:'Megazoid, Normal'"
         id="path5010" />
      <path
         d="m 116.01341,39.441597 h 3.59832 v -8.46664 h -2.93157 v 1.904994 h -0.66675 c -1.94733,0 -3.50307,1.439329 -3.50307,3.291406 0,1.799161 1.55574,3.27024 3.50307,3.27024 z m -0.58208,-3.280823 c 0,-0.444498 0.35983,-0.804331 0.80433,-0.804331 0.4445,0 0.81491,0.359833 0.81491,0.804331 0,0.455082 -0.37041,0.814914 -0.81491,0.814914 -0.4445,0 -0.80433,-0.359832 -0.80433,-0.814914 z"
         style="font-family:Megazoid;-inkscape-font-specification:'Megazoid, Normal'"
         id="path5012" />
      <path
         d="m 120.07822,39.441597 h 3.03741 V 34.41453 h -3.03741 z m -0.15875,-6.953228 c 0,0.920747 0.762,1.672161 1.68275,1.672161 0.92074,0 1.67216,-0.751414 1.67216,-1.672161 0,-0.93133 -0.75142,-1.693328 -1.67216,-1.693328 -0.92075,0 -1.68275,0.761998 -1.68275,1.693328 z"
         style="font-family:Megazoid;-inkscape-font-specification:'Megazoid, Normal'"
         id="path5014" />
      <path
         d="m 126.98035,39.621513 c 1.94733,0 3.5454,-1.555745 3.5454,-3.460739 0,-1.915577 -1.58749,-3.450156 -3.5454,-3.450156 -1.96849,0 -3.55599,1.545162 -3.55599,3.450156 0,1.904994 1.5875,3.460739 3.55599,3.460739 z m -0.8255,-3.450156 c 0,-0.444498 0.37042,-0.814914 0.81492,-0.814914 0.44449,0 0.81491,0.370416 0.81491,0.814914 0,0.444499 -0.37042,0.814914 -0.81491,0.814914 -0.4445,0 -0.81492,-0.370415 -0.81492,-0.814914 z"
         style="font-family:Megazoid;-inkscape-font-specification:'Megazoid, Normal'"
         id="path5016" />
    </g>
  </g>
</svg>
